<svg width="38" height="33" viewBox="0 0 38 33" fill="none" xmlns="http://www.w3.org/2000/svg">
    <path
        d="M14.0225 25.8974C12.7139 21.0136 16.9961 15.9404 19.3008 14.0143C23.6434 12.8507 32.6861 21.3327 30.9718 24.4093C29.6003 26.8705 24.7556 27.5289 22.5047 27.5504C20.2226 29.0343 15.3311 30.7812 14.0225 25.8974Z"
        fill="white" />
    <ellipse cx="2.80961" cy="4.0003" rx="2.80961" ry="4.0003"
        transform="matrix(0.594108 -0.804385 0.78654 0.617539 3.49121 18.5806)" fill="white" />
    <path
        d="M15.34 9.1111C16.2987 11.0274 15.8205 13.228 14.272 14.0267C12.7235 14.8253 11.1343 13.7109 10.1756 11.7947C9.21696 9.87838 8.6119 7.79919 10.1604 7.00053C11.7088 6.20187 14.3813 7.19482 15.34 9.1111Z"
        fill="white" />
    <path
        d="M26.6085 9.00216C26.5439 11.141 25.5461 12.0067 23.8033 11.924C22.0605 11.8412 21.1894 10.0815 21.2541 7.9426C21.3188 5.80372 23.1624 4.14165 24.9052 4.22439C26.6479 4.30712 26.6732 6.86327 26.6085 9.00216Z"
        fill="white" />
    <path
        d="M32.2777 15.8297C31.4587 17.3423 30.418 17.585 29.1756 16.8626C27.9332 16.1403 27.9323 14.5442 28.7513 13.0315C29.5703 11.5189 30.7865 10.7887 32.0289 11.5111C33.2712 12.2334 33.0967 14.317 32.2777 15.8297Z"
        fill="white" />
</svg>